PathFileType	4	(X/Y/Z)	/Users/niels/Desktop/University/Third Semester/Perception and Action/Exam/Gymnastics Motion Tracking/Code for Gym Tracking/Analyzed Data/Webcam_Backflip/id5_3_baseline_Sports2D/id5_3_baseline_Sports2D_px_person00.trc
DataRate	CameraRate	NumFrames	NumMarkers	Units	OrigDataRate	OrigDataStartFrame	OrigNumFrames
29.8125	29.8125	11	22	m	29.8125	140	160
Frame#	Time	Hip			RHip			RKnee			RAnkle			RBigToe			RSmallToe			RHeel			LHip			LKnee			LAnkle			LBigToe			LSmallToe			LHeel			Neck			Head			Nose			RShoulder			RElbow			RWrist			LShoulder			LElbow			LWrist		
		X1	Y1	Z1	X2	Y2	Z2	X3	Y3	Z3	X4	Y4	Z4	X5	Y5	Z5	X6	Y6	Z6	X7	Y7	Z7	X8	Y8	Z8	X9	Y9	Z9	X10	Y10	Z10	X11	Y11	Z11	X12	Y12	Z12	X13	Y13	Z13	X14	Y14	Z14	X15	Y15	Z15	X16	Y16	Z16	X17	Y17	Z17	X18	Y18	Z18	X19	Y19	Z19	X20	Y20	Z20	X21	Y21	Z21	X22	Y22	Z22
140	4.696016771488469	0.9469269552150241	-0.5621657493190995	0.0	0.9522707812170577	-0.5605565026184105	0.0	0.989751503852595	-0.6568288977582579	0.0	0.954853132697522	-0.7605621608168414	0.0	0.9968358475535064	-0.778831542711523	0.0	0.9854401555471913	-0.782721010581668	0.0	0.9451529796768348	-0.7751982247612009	0.0	0.9389048820796954	-0.5622619088105296	0.0	0.9541117905785298	-0.6633349719688029	0.0	0.946957352093483	-0.765329486664015	0.0	0.9880721503784066	-0.7803331463746009	0.0	0.9821424163666461	-0.7775583926464794	0.0	0.9375257666064956	-0.7807365867837158	0.0	0.9596635360876931	-0.4189924349553205	0.0	1.0072766251865088	-0.37499158683817146	0.0	0.9981353775964036	-0.4111557121829125	0.0	0.9495080804991759	-0.42575886119842354	0.0	0.9298743270457194	-0.4894633010946105	0.0	0.9438692409494432	-0.5501239924763528	0.0	0.9495709176548033	-0.432936896026548	0.0	0.9355006761011624	-0.4989434701481178	0.0	0.95741826470903	-0.5546260353621787	0.0
141	4.729559748427672	0.9476887065224794	-0.5634134108282597	0.0	0.9536928993706705	-0.561801101850214	0.0	0.9897060038245381	-0.6580786034832354	0.0	0.961116216808235	-0.7638004013013185	0.0	1.0040767032539044	-0.7806686055072929	0.0	0.9931161101870281	-0.7848710565271803	0.0	0.9525421293341566	-0.7784841817562139	0.0	0.9391905430263607	-0.5634713718675894	0.0	0.9545877634865186	-0.6644296287691595	0.0	0.9481729866993862	-0.7675619607048804	0.0	0.9886390737392778	-0.7815356490060356	0.0	0.9828798518245878	-0.7791330828101942	0.0	0.9394257883742703	-0.7828051061302407	0.0	0.9616756115485374	-0.4204944029674238	0.0	1.0094211158745643	-0.3760187873921946	0.0	0.9998481233083808	-0.4121234146443513	0.0	0.9516039321533777	-0.42690052813013685	0.0	0.9315850234915463	-0.4899507686905089	0.0	0.9455000016296382	-0.5504286808612993	0.0	0.9514063522073817	-0.434398926991116	0.0	0.9363793919948705	-0.49951688731299343	0.0	0.9562964779702168	-0.5554989260881776	0.0
142	4.763102725366876	0.9486163763140211	-0.5665049311467399	0.0	0.9550675789581845	-0.5648871960873968	0.0	0.9889958161817614	-0.6613126133219929	0.0	0.9653091894747576	-0.7684889588936147	0.0	1.0085935019405017	-0.7843278050298091	0.0	0.9980016985809752	-0.7885931250860527	0.0	0.9575472936927142	-0.7831648566603611	0.0	0.9400293971797156	-0.5665321460596838	0.0	0.9551851896977899	-0.6672253811179717	0.0	0.9491288628410294	-0.771213572985078	0.0	0.9889177960248186	-0.7841709882836477	0.0	0.9833506865467865	-0.782020729289516	0.0	0.9411651822914681	-0.7862076161441472	0.0	0.9634048304292531	-0.4233993809406454	0.0	1.0105372186807406	-0.37826722321282485	0.0	1.0012518646384059	-0.4144963395436128	0.0	0.9534015468236877	-0.4297651986722407	0.0	0.9339757508360882	-0.49248704055441256	0.0	0.948502049143703	-0.5527717340180012	0.0	0.9530532999860037	-0.43748249292512614	0.0	0.9377075575027743	-0.502138762491509	0.0	0.9563588842581207	-0.5581769678364201	0.0
143	4.796645702306079	0.9496710650396971	-0.5711649962362417	0.0	0.9563902689736666	-0.5695425033624983	0.0	0.9880208846529286	-0.6662299670393472	0.0	0.9674945960352771	-0.7741236622856928	0.0	1.0103726764973608	-0.7892824075655305	0.0	1.0000248556502223	-0.7933942980415052	0.0	0.9602673179437906	-0.7887885666402552	0.0	0.9412862610256661	-0.5711936381902014	0.0	0.9558117172483849	-0.6714549202583576	0.0	0.9496678009430771	-0.7758905222695714	0.0	0.9887823812916318	-0.7881962299570462	0.0	0.9833808843970259	-0.7861380750140695	0.0	0.9423777462242778	-0.7906743573372956	0.0	0.9647990855075176	-0.4274929262813218	0.0	1.0108808456736043	-0.3815035488265491	0.0	1.002313943738414	-0.4179602242132463	0.0	0.9548892292512732	-0.43414815729106987	0.0	0.936946175216223	-0.4968282947472332	0.0	0.9526900716758396	-0.5569319771532991	0.0	0.9543804877651402	-0.4419221048430591	0.0	0.9392335868308207	-0.5065056515809615	0.0	0.9573523768756146	-0.5625229624310186	0.0
144	4.830188679245282	0.9507436023805098	-0.5768946734352388	0.0	0.9575813870365332	-0.5752773812127048	0.0	0.9870398412547114	-0.6723613328092832	0.0	0.9680981392918555	-0.7803446715768515	0.0	1.0100056448396464	-0.7949774563216068	0.0	0.9997708543750372	-0.7987925712495807	0.0	0.9612244562680159	-0.7949135424340872	0.0	0.942771893724256	-0.5769739996054886	0.0	0.9563917969314031	-0.6767428488257309	0.0	0.9498226525923069	-0.7812496371855491	0.0	0.9882605395263642	-0.7933839963164917	0.0	0.983017849286509	-0.7912566696391303	0.0	0.9429986568843761	-0.7959006859530195	0.0	0.9658892494253697	-0.4324139774949353	0.0	1.0107299236981384	-0.3854254365757858	0.0	1.0030772114741695	-0.42214847160461577	0.0	0.9561133106716163	-0.43972337058903105	0.0	0.9403565917290895	-0.5025688149256982	0.0	0.9578074241192246	-0.5624678796823375	0.0	0.9553252542465971	-0.4473297570159526	0.0	0.9406901826036621	-0.5121518925936581	0.0	0.9589884935998141	-0.5681604718853552	0.0
145	4.863731656184486	0.9517462653588247	-0.583046212715807	0.0	0.958603436088623	-0.581439030594092	0.0	0.9861911563754426	-0.6790662229234202	0.0	0.9676940707278244	-0.7868043761766611	0.0	1.008270101517819	-0.8009021822897163	0.0	0.9980722236506061	-0.8043666491909578	0.0	0.9610815960382415	-0.8011011748587805	0.0	0.944331167005066	-0.5832331692690413	0.0	0.9568811274358026	-0.682590722194111	0.0	0.9497141722526693	-0.786927735388307	0.0	0.9875198516617146	-0.7992094969369044	0.0	0.9824898026134882	-0.7968998177268796	0.0	0.9431174845192675	-0.8014970099184404	0.0	0.9667864141935014	-0.4376844440213289	0.0	1.0102799632666897	-0.3896380518942251	0.0	1.0036835609880368	-0.42662245747785277	0.0	0.9571555699463197	-0.44600179035859794	0.0	0.9440115399623834	-0.5091762231612068	0.0	0.9635077330396605	-0.5688006864762045	0.0	0.9559783688367555	-0.45320585222194015	0.0	0.9419697990624165	-0.5185019318048314	0.0	0.9610975329805024	-0.5745766785057228	0.0
146	4.897274633123689	0.9526601463441521	-0.588934558901801	0.0	0.9595067857004169	-0.5873460900128091	0.0	0.9855217809026379	-0.6855969191237765	0.0	0.9668155043104059	-0.7930225762359365	0.0	1.0057856601092117	-0.8065651604130026	0.0	0.995650600462783	-0.8097221770733777	0.0	0.9604140010300183	-0.8069080334851677	0.0	0.9458662599783683	-0.5892747690670135	0.0	0.95727449335739	-0.6883592410281478	0.0	0.9494562547699456	-0.7924569084212915	0.0	0.9867211653010552	-0.8049607404967084	0.0	0.9819595822476066	-0.8024440371092473	0.0	0.9428660881374981	-0.806964264088348	0.0	0.9676182479362686	-0.4427968946762505	0.0	1.0096976891266833	-0.3936259416389752	0.0	1.0042925915826768	-0.43082341375086086	0.0	0.9580902051501979	-0.45236825522107316	0.0	0.9476271253523707	-0.5160545358183458	0.0	0.9693557811203004	-0.5752948535915834	0.0	0.9565777047314982	-0.45899188188285583	0.0	0.9431556848895732	-0.5248966856564625	0.0	0.9636140815323112	-0.5811263372906257	0.0
147	4.930817610062892	0.9535036773457001	-0.5939423003156052	0.0	0.9603553659315761	-0.5924144136941188	0.0	0.9849977543551496	-0.6912449185962397	0.0	0.9658463429840533	-0.7984620481455391	0.0	1.0029982530742743	-0.8114936985041891	0.0	0.9930383336179576	-0.8144776150804084	0.0	0.9596227506973569	-0.8119323430819297	0.0	0.947300057727114	-0.5944461374634129	0.0	0.9575801375032131	-0.6933721213940855	0.0	0.949120959794425	-0.7973103487448636	0.0	0.985920418707101	-0.8099621844302342	0.0	0.9814098499727274	-0.8073049702120036	0.0	0.9423827673270839	-0.8117806725974602	0.0	0.9684669204863143	-0.4472502146754559	0.0	1.0091556380918139	-0.39682891020486977	0.0	1.0049991627856751	-0.4341583125964106	0.0	0.9589506870363121	-0.45816059318357155	0.0	0.9508583116074747	-0.522563987131131	0.0	0.9748697353099645	-0.5813037840640978	0.0	0.9573763616366066	-0.464118144544095	0.0	0.9444078501284477	-0.5306450139910664	0.0	0.9664859675309089	-0.5870636382568469	0.0
148	4.964360587002096	0.9543004811827629	-0.5975969315622336	0.0	0.9611534100127392	-0.5961890560080159	0.0	0.9845119001170302	-0.6955033710716854	0.0	0.964995131894819	-0.8026918354444063	0.0	1.0003325533035181	-0.8152712987425476	0.0	0.990629807785429	-0.818259219923512	0.0	0.9589214896736235	-0.8158625744173192	0.0	0.9485789340391283	-0.5982308782632988	0.0	0.9577835218662264	-0.6971087208219947	0.0	0.9487668830947239	-0.8010162784248795	0.0	0.9851410569993333	-0.8136897101471005	0.0	0.9807806544341893	-0.8109850906503798	0.0	0.9418252965170938	-0.8154927810611027	0.0	0.9693470656711926	-0.4505649616484036	0.0	1.0087721332425683	-0.39880245682104004	0.0	1.005833163490348	-0.4361788954152511	0.0	0.9597438287409501	-0.46276196529106284	0.0	0.9533924362943144	-0.5280520260032071	0.0	0.9795802623785429	-0.5862407888344395	0.0	0.9585060333026071	-0.4680446203485178	0.0	0.9458700873981855	-0.5351118932502192	0.0	0.9696270988404492	-0.5916553317468843	0.0
149	4.997903563941299	0.9550961882744372	-0.5995998951594045	0.0	0.9618711133007195	-0.5983090677842136	0.0	0.9839181486330858	-0.6981238198850704	0.0	0.9643473898685176	-0.8054333039725664	0.0	0.9983317556529963	-0.817544021134727	0.0	0.9887998596762021	-0.8206906818975065	0.0	0.9583640975008638	-0.8184427553514371	0.0	0.9497448234933695	-0.6002942399516193	0.0	0.9578771193231016	-0.6992977251528925	0.0	0.9484808278352282	-0.803210577452993	0.0	0.9845302890405199	-0.8157456447105654	0.0	0.980194381179521	-0.81300549472659	0.0	0.9413640282432817	-0.8176987055156124	0.0	0.9702212830809495	-0.45232982375150144	0.0	1.0085407605714098	-0.399340366520884	0.0	1.0067982355995966	-0.43670858492196707	0.0	0.9604726338127276	-0.4656671594107448	0.0	0.9550466619081915	-0.5319342890249669	0.0	0.9830678918286091	-0.5896555460210959	0.0	0.9599663336107713	-0.4703179931671609	0.0	0.9476445707028256	-0.537807709344541	0.0	0.9728398787753364	-0.5943527503135354	0.0
150	5.031446540880502	0.9559632232962011	-0.5998170421606147	0.0	0.9624827878110518	-0.5985212872082036	0.0	0.9830965830117012	-0.6990350389116269	0.0	0.9639061668770117	-0.8065100373975551	0.0	0.9975346423054248	-0.8180176338951245	0.0	0.9878950877939511	-0.8214322310945749	0.0	0.9578951752707258	-0.8194344873931301	0.0	0.9509419302472403	-0.6004732477227387	0.0	0.9579306168743571	-0.699849617009074	0.0	0.9483722808278773	-0.8036633360016351	0.0	0.9843800800910825	-0.8158681751847087	0.0	0.9799981957548342	-0.8129655648049895	0.0	0.941134544637943	-0.8180558940832262	0.0	0.9710505191482781	-0.4522800306620102	0.0	1.0083571974017567	-0.39844647279279805	0.0	1.0078856112579795	-0.4357911379871574	0.0	0.961138595074735	-0.46654722723967684	0.0	0.9558136488183514	-0.5338097765134273	0.0	0.9850123353766975	-0.5912910254497538	0.0	0.96170612642242	-0.4706637690972531	0.0	0.9497594404914762	-0.5384666912972272	0.0	0.9757490713193616	-0.5949388728787941	0.0
